<svg xmlns="http://www.w3.org/2000/svg" xmlns:xlink="http://www.w3.org/1999/xlink" version="1.1" id="Layer_1" x="0px" y="0px" width="100%" viewBox="0 0 496 496" enable-background="new 0 0 496 496" xml:space="preserve" transform="matrix(1, 0, 0, 1, 0, 0)">
<path fill="#0987f2" opacity="1.000000" stroke="none" d=" M236.083466,52.693680   C252.707504,52.726830 268.792664,52.359627 284.848602,55.346539   C314.666046,60.893536 341.991943,72.104889 366.422363,89.963684   C409.361389,121.352417 436.763214,163.306717 445.682495,215.627136   C455.987396,276.075714 442.817047,331.536682 403.228790,379.441711   C374.583160,414.105225 338.209686,437.410004 294.221527,446.546600   C220.702103,461.816986 156.537430,442.983643 104.003677,388.731934   C74.272881,358.028839 56.925613,320.796875 51.577393,278.317139   C43.969704,217.891037 60.372101,164.486465 100.469406,118.791870   C131.005951,83.992661 169.808578,63.277248 215.304184,55.113594   C221.996872,53.912674 228.828156,53.484123 236.083466,52.693680  M243.497162,133.232071   C234.273254,135.414673 225.036469,137.544662 215.829651,139.797104   C208.900558,141.492294 201.747467,142.608246 195.841721,147.143311   C193.730286,148.764694 191.758713,147.693832 189.830597,146.583633   C183.624039,143.009979 177.358200,139.535461 171.222916,135.843719   C168.656281,134.299332 166.453857,134.124069 163.813034,135.696960   C156.802704,139.872345 149.710938,143.915802 142.571609,147.867264   C140.022507,149.278137 139.241272,151.248413 139.276596,154.007874   C139.368301,161.170563 139.158173,168.338547 139.331299,175.498062   C139.409744,178.741913 138.223648,180.632431 135.397705,182.244324   C121.366928,190.247345 107.498772,198.535706 93.458565,206.521774   C90.199440,208.375549 89.403870,210.261566 90.957733,213.699509   C92.735100,217.631973 94.328255,221.703705 95.445267,225.864258   C96.807846,230.939484 99.203545,232.177185 104.452232,230.808487   C121.828781,226.277145 139.389648,222.455124 156.783997,217.987930   C161.243576,216.842621 163.659424,217.859238 166.272598,221.548080   C185.526611,248.727615 205.034668,275.727051 224.342987,302.868378   C226.312637,305.637115 227.783737,306.684753 231.101120,304.718964   C249.151779,294.022522 267.307922,283.503357 285.473907,273.003021   C288.132843,271.466095 289.614532,269.401978 290.255157,266.429535   C293.812866,249.922516 303.621307,238.017181 317.988861,229.737915   C321.445251,227.746185 322.904022,225.540741 322.859924,221.492508   C322.738525,210.352676 322.916992,210.354431 333.641113,208.236511   C333.894836,208.186417 334.082184,207.800140 334.336395,207.532928   C334.163147,205.628799 333.003082,204.168503 331.952271,202.698868   C314.225647,177.906357 296.452667,153.146896 278.772949,128.321030   C277.176056,126.078644 275.614319,125.487000 272.921051,126.175652   C263.418640,128.605423 253.849899,130.775742 243.497162,133.232071  M308.475189,291.953400   C315.577454,304.559235 327.366730,310.147156 340.654785,313.601135   C347.580872,315.401398 354.884644,315.297028 361.639526,317.859802   C365.957642,319.498077 369.881287,321.454773 370.474579,326.908508   C371.091278,332.577850 369.280579,337.036041 364.683075,340.372284   C357.499237,345.585419 345.545776,346.072937 339.112762,339.664948   C333.984772,334.556885 328.637695,334.140442 322.430359,334.389038   C319.103088,334.522247 315.765900,334.397461 312.433228,334.409271   C305.900787,334.432465 305.047729,335.758667 307.786835,341.865967   C312.404602,352.162109 320.472839,359.201050 330.669403,363.060333   C336.703583,365.344208 339.412598,368.108276 338.347565,374.452454   C337.793884,377.750519 339.613556,378.831726 342.744507,378.748016   C347.906433,378.609985 353.074951,378.730011 358.240631,378.717529   C364.920013,378.701355 365.178497,378.678772 364.860077,372.097656   C364.649261,367.740021 365.992279,365.543457 370.340912,364.217499   C381.185669,360.910675 389.209808,353.875549 394.609833,343.925507   C403.169403,328.153564 399.483612,311.581146 385.088837,300.960968   C377.811523,295.591919 369.389130,293.066406 360.667542,291.355408   C353.991821,290.045807 347.135559,289.559570 340.835327,286.618805   C332.472412,282.715271 330.103271,275.438721 335.145325,267.766174   C339.560333,261.047760 346.399628,259.057373 353.941681,259.935852   C361.477997,260.813690 367.832611,264.114563 370.104126,272.010284   C370.940674,274.918182 372.223083,275.737762 374.921722,275.699799   C381.086060,275.613007 387.252838,275.716583 393.417969,275.664551   C398.506714,275.621613 399.342072,274.616547 398.208374,269.692627   C394.949799,255.540146 385.910309,246.035019 372.801849,241.006332   C366.526062,238.598801 363.838562,235.702927 364.919708,229.167664   C365.497101,225.677246 363.894409,223.912231 360.161316,223.989243   C354.332214,224.109528 348.497284,224.054520 342.666809,223.956314   C339.500702,223.902985 338.029633,225.209076 338.289886,228.439911   C338.409882,229.929703 338.136719,231.459991 338.333252,232.933044   C338.847809,236.789810 337.186737,238.635239 333.457397,239.599518   C328.915161,240.773972 324.899933,243.275558 321.117554,246.045685   C305.605743,257.406128 300.272675,276.052582 308.475189,291.953400  M118.013046,254.578995   C117.695702,251.488937 118.686111,248.274063 117.270981,245.305038   C107.044464,245.123611 106.291458,245.844650 106.285690,255.652512   C106.275986,272.152344 106.466499,288.656342 106.129898,305.149567   C106.026375,310.221893 107.887016,313.025116 112.128769,315.411469   C128.097900,324.395447 143.914337,333.650909 159.784454,342.810791   C178.396988,353.553467 196.997925,364.316315 215.626785,375.030579   C217.867020,376.319031 220.020813,378.206787 222.971146,376.481476   C233.753922,370.175995 244.558731,363.907806 255.389267,357.684753   C257.614990,356.405884 258.038391,354.853394 256.646362,352.775909   C255.189392,350.601532 254.949356,347.731171 252.516830,345.627533   C243.339386,350.951660 234.137085,356.279114 224.947784,361.628845   C222.596191,362.997833 220.416611,364.211151 217.570435,362.423920   C212.918884,359.502960 208.121384,356.802979 203.293930,354.178101   C200.632629,352.731049 199.634232,350.776794 199.678650,347.735901   C199.836914,336.904846 199.776978,326.070312 199.753693,315.237183   C199.749878,313.457733 200.297546,311.311493 198.413254,310.184052   C190.950302,305.718628 183.409241,301.383759 175.260742,296.629181   C174.662689,310.461273 175.661224,323.219238 174.594620,335.571960   C172.374268,336.429382 171.221619,335.573181 170.111450,334.936096   C153.928467,325.649506 137.787537,316.289398 121.582336,307.041901   C118.732597,305.415710 117.901596,303.200195 117.928566,300.054871   C118.055725,285.222809 118.005753,270.389252 118.013046,254.578995  M299.504547,349.860107   C295.929932,343.341278 294.184631,336.297699 293.175446,328.975311   C292.657379,325.216278 293.863525,323.797028 297.634338,323.778473   C301.994629,323.757050 306.445007,324.492249 310.940430,323.153870   C310.539703,322.369720 310.414185,321.832367 310.080170,321.513031   C300.451355,312.307495 290.776306,303.150208 281.174835,293.916321   C279.020691,291.844666 277.687927,293.229309 276.166809,294.662292   C271.317688,299.230377 266.284546,303.615204 261.616241,308.359833   C256.801880,313.252899 252.331848,318.484802 247.481384,323.821259   C251.291519,323.821259 255.236588,323.943481 259.170258,323.784332   C262.595856,323.645782 263.951599,324.772369 264.544891,328.475769   C268.215393,351.388641 286.558899,370.377472 308.912445,372.038940   C311.641998,372.241821 314.364258,373.383362 317.711182,371.443390   C310.556152,365.117767 303.966980,358.817474 299.504547,349.860107  M137.304749,258.325897   C137.641327,260.893005 136.077652,264.246002 138.523148,265.900055   C145.324478,270.500214 152.354843,274.805634 160.585693,278.531586   C160.585693,269.888275 160.624847,262.103088 160.531784,254.319473   C160.521194,253.434006 160.008820,252.126831 159.322357,251.743423   C152.561707,247.967239 146.282898,243.263458 138.329590,240.238068   C136.478546,246.213486 137.657730,251.864105 137.304749,258.325897  z"/>
</svg>